<svg id="visual" viewBox="0 0 2000 1400" width="2000" height="1400" xmlns="http://www.w3.org/2000/svg" xmlns:xlink="http://www.w3.org/1999/xlink" version="1.1"><rect x="0" y="0" width="2000" height="1400" fill="#001220"></rect><path d="M0 1044L47.7 1037.8C95.3 1031.7 190.7 1019.3 285.8 995.3C381 971.3 476 935.7 571.2 930.3C666.3 925 761.7 950 857 954.7C952.3 959.3 1047.7 943.7 1143 949.5C1238.3 955.3 1333.7 982.7 1428.8 968.7C1524 954.7 1619 899.3 1714.2 871.5C1809.3 843.7 1904.7 843.3 1952.3 843.2L2000 843L2000 1401L1952.3 1401C1904.7 1401 1809.3 1401 1714.2 1401C1619 1401 1524 1401 1428.8 1401C1333.7 1401 1238.3 1401 1143 1401C1047.7 1401 952.3 1401 857 1401C761.7 1401 666.3 1401 571.2 1401C476 1401 381 1401 285.8 1401C190.7 1401 95.3 1401 47.7 1401L0 1401Z" fill="#0066b1"></path><path d="M0 1032L47.7 1017.5C95.3 1003 190.7 974 285.8 956.2C381 938.3 476 931.7 571.2 932.8C666.3 934 761.7 943 857 947.2C952.3 951.3 1047.7 950.7 1143 947.2C1238.3 943.7 1333.7 937.3 1428.8 934.8C1524 932.3 1619 933.7 1714.2 964.5C1809.3 995.3 1904.7 1055.7 1952.3 1085.8L2000 1116L2000 1401L1952.3 1401C1904.7 1401 1809.3 1401 1714.2 1401C1619 1401 1524 1401 1428.8 1401C1333.7 1401 1238.3 1401 1143 1401C1047.7 1401 952.3 1401 857 1401C761.7 1401 666.3 1401 571.2 1401C476 1401 381 1401 285.8 1401C190.7 1401 95.3 1401 47.7 1401L0 1401Z" fill="#1e4b88"></path><path d="M0 1077L47.7 1080C95.3 1083 190.7 1089 285.8 1083.2C381 1077.3 476 1059.7 571.2 1054.3C666.3 1049 761.7 1056 857 1053.8C952.3 1051.7 1047.7 1040.3 1143 1038.8C1238.3 1037.3 1333.7 1045.7 1428.8 1053.8C1524 1062 1619 1070 1714.2 1085.8C1809.3 1101.7 1904.7 1125.3 1952.3 1137.2L2000 1149L2000 1401L1952.3 1401C1904.7 1401 1809.3 1401 1714.2 1401C1619 1401 1524 1401 1428.8 1401C1333.7 1401 1238.3 1401 1143 1401C1047.7 1401 952.3 1401 857 1401C761.7 1401 666.3 1401 571.2 1401C476 1401 381 1401 285.8 1401C190.7 1401 95.3 1401 47.7 1401L0 1401Z" fill="#1e3361"></path><path d="M0 1149L47.7 1158.5C95.3 1168 190.7 1187 285.8 1192C381 1197 476 1188 571.2 1182.3C666.3 1176.7 761.7 1174.3 857 1176.2C952.3 1178 1047.7 1184 1143 1188.7C1238.3 1193.3 1333.7 1196.7 1428.8 1198.8C1524 1201 1619 1202 1714.2 1193.5C1809.3 1185 1904.7 1167 1952.3 1158L2000 1149L2000 1401L1952.3 1401C1904.7 1401 1809.3 1401 1714.2 1401C1619 1401 1524 1401 1428.8 1401C1333.7 1401 1238.3 1401 1143 1401C1047.7 1401 952.3 1401 857 1401C761.7 1401 666.3 1401 571.2 1401C476 1401 381 1401 285.8 1401C190.7 1401 95.3 1401 47.7 1401L0 1401Z" fill="#161d3c"></path><path d="M0 1334L47.7 1327.5C95.3 1321 190.7 1308 285.8 1299.7C381 1291.3 476 1287.7 571.2 1281.5C666.3 1275.3 761.7 1266.7 857 1271.7C952.3 1276.7 1047.7 1295.3 1143 1292.5C1238.3 1289.7 1333.7 1265.3 1428.8 1251.8C1524 1238.3 1619 1235.7 1714.2 1249.3C1809.3 1263 1904.7 1293 1952.3 1308L2000 1323L2000 1401L1952.3 1401C1904.7 1401 1809.3 1401 1714.2 1401C1619 1401 1524 1401 1428.8 1401C1333.7 1401 1238.3 1401 1143 1401C1047.7 1401 952.3 1401 857 1401C761.7 1401 666.3 1401 571.2 1401C476 1401 381 1401 285.8 1401C190.7 1401 95.3 1401 47.7 1401L0 1401Z" fill="#07021c"></path></svg>