<svg id="visual" viewBox="0 0 2000 1400" width="2000" height="1400" xmlns="http://www.w3.org/2000/svg" xmlns:xlink="http://www.w3.org/1999/xlink" version="1.1"><rect x="0" y="0" width="2000" height="1400" fill="#00005C"></rect><path d="M756 1400L985 1400L985 1283L600 1283L600 1167L760 1167L760 1050L583 1050L583 933L1235 933L1235 817L1083 817L1083 700L1163 700L1163 583L1046 583L1046 467L508 467L508 350L662 350L662 233L877 233L877 117L710 117L710 0L2000 0L2000 117L2000 117L2000 233L2000 233L2000 350L2000 350L2000 467L2000 467L2000 583L2000 583L2000 700L2000 700L2000 817L2000 817L2000 933L2000 933L2000 1050L2000 1050L2000 1167L2000 1167L2000 1283L2000 1283L2000 1400L2000 1400Z" fill="#9900ff"></path><path d="M1298 1400L1180 1400L1180 1283L1287 1283L1287 1167L854 1167L854 1050L722 1050L722 933L883 933L883 817L1119 817L1119 700L1266 700L1266 583L921 583L921 467L1128 467L1128 350L1214 350L1214 233L1021 233L1021 117L1285 117L1285 0L2000 0L2000 117L2000 117L2000 233L2000 233L2000 350L2000 350L2000 467L2000 467L2000 583L2000 583L2000 700L2000 700L2000 817L2000 817L2000 933L2000 933L2000 1050L2000 1050L2000 1167L2000 1167L2000 1283L2000 1283L2000 1400L2000 1400Z" fill="#821aee"></path><path d="M955 1400L853 1400L853 1283L963 1283L963 1167L1036 1167L1036 1050L835 1050L835 933L1007 933L1007 817L847 817L847 700L1072 700L1072 583L1139 583L1139 467L973 467L973 350L1386 350L1386 233L1041 233L1041 117L1188 117L1188 0L2000 0L2000 117L2000 117L2000 233L2000 233L2000 350L2000 350L2000 467L2000 467L2000 583L2000 583L2000 700L2000 700L2000 817L2000 817L2000 933L2000 933L2000 1050L2000 1050L2000 1167L2000 1167L2000 1283L2000 1283L2000 1400L2000 1400Z" fill="#6c23dd"></path><path d="M1503 1400L1043 1400L1043 1283L988 1283L988 1167L976 1167L976 1050L1290 1050L1290 933L1018 933L1018 817L1192 817L1192 700L1240 700L1240 583L1220 583L1220 467L1082 467L1082 350L1020 350L1020 233L1149 233L1149 117L1525 117L1525 0L2000 0L2000 117L2000 117L2000 233L2000 233L2000 350L2000 350L2000 467L2000 467L2000 583L2000 583L2000 700L2000 700L2000 817L2000 817L2000 933L2000 933L2000 1050L2000 1050L2000 1167L2000 1167L2000 1283L2000 1283L2000 1400L2000 1400Z" fill="#5727cb"></path><path d="M1517 1400L1258 1400L1258 1283L1367 1283L1367 1167L1257 1167L1257 1050L1367 1050L1367 933L1371 933L1371 817L1459 817L1459 700L1153 700L1153 583L1580 583L1580 467L1334 467L1334 350L1430 350L1430 233L1278 233L1278 117L1549 117L1549 0L2000 0L2000 117L2000 117L2000 233L2000 233L2000 350L2000 350L2000 467L2000 467L2000 583L2000 583L2000 700L2000 700L2000 817L2000 817L2000 933L2000 933L2000 1050L2000 1050L2000 1167L2000 1167L2000 1283L2000 1283L2000 1400L2000 1400Z" fill="#4328b9"></path><path d="M1570 1400L1543 1400L1543 1283L1491 1283L1491 1167L1637 1167L1637 1050L1613 1050L1613 933L1630 933L1630 817L1631 817L1631 700L1283 700L1283 583L1400 583L1400 467L1469 467L1469 350L1323 350L1323 233L1491 233L1491 117L1657 117L1657 0L2000 0L2000 117L2000 117L2000 233L2000 233L2000 350L2000 350L2000 467L2000 467L2000 583L2000 583L2000 700L2000 700L2000 817L2000 817L2000 933L2000 933L2000 1050L2000 1050L2000 1167L2000 1167L2000 1283L2000 1283L2000 1400L2000 1400Z" fill="#3127a6"></path><path d="M1430 1400L1687 1400L1687 1283L1515 1283L1515 1167L1695 1167L1695 1050L1565 1050L1565 933L1524 933L1524 817L1492 817L1492 700L1716 700L1716 583L1722 583L1722 467L1622 467L1622 350L1714 350L1714 233L1456 233L1456 117L1725 117L1725 0L2000 0L2000 117L2000 117L2000 233L2000 233L2000 350L2000 350L2000 467L2000 467L2000 583L2000 583L2000 700L2000 700L2000 817L2000 817L2000 933L2000 933L2000 1050L2000 1050L2000 1167L2000 1167L2000 1283L2000 1283L2000 1400L2000 1400Z" fill="#1f2593"></path><path d="M1800 1400L1624 1400L1624 1283L1820 1283L1820 1167L1716 1167L1716 1050L1806 1050L1806 933L1794 933L1794 817L1570 817L1570 700L1840 700L1840 583L1813 583L1813 467L1607 467L1607 350L1818 350L1818 233L1835 233L1835 117L1672 117L1672 0L2000 0L2000 117L2000 117L2000 233L2000 233L2000 350L2000 350L2000 467L2000 467L2000 583L2000 583L2000 700L2000 700L2000 817L2000 817L2000 933L2000 933L2000 1050L2000 1050L2000 1167L2000 1167L2000 1283L2000 1283L2000 1400L2000 1400Z" fill="#0e227f"></path><path d="M1826 1400L1930 1400L1930 1283L1964 1283L1964 1167L1726 1167L1726 1050L1774 1050L1774 933L1756 933L1756 817L1794 817L1794 700L1895 700L1895 583L1785 583L1785 467L1768 467L1768 350L1749 350L1749 233L1835 233L1835 117L1851 117L1851 0L2000 0L2000 117L2000 117L2000 233L2000 233L2000 350L2000 350L2000 467L2000 467L2000 583L2000 583L2000 700L2000 700L2000 817L2000 817L2000 933L2000 933L2000 1050L2000 1050L2000 1167L2000 1167L2000 1283L2000 1283L2000 1400L2000 1400Z" fill="#001e6c"></path></svg>