<?xml version="1.0" encoding="utf-8"?>
<svg xmlns="http://www.w3.org/2000/svg" style="margin: auto; background: rgb(255, 251, 243); display: block; shape-rendering: auto;" width="280" height="250" preserveAspectRatio="xMidYMid">
<style type="text/css">
  text {
    text-anchor: middle; font-size: 80px; opacity: 0;
  }
</style>
<g style="transform-origin:140px 125px;transform:scale(1)">
<g transform="translate(140,125)">
  <g transform="translate(0,0)"><g class="path" style="transform: matrix(1, 0, 0, 1, 0, 236.81); opacity: 0.05; transform-origin: -14.0617px -11.0802px 0px; animation: 1s linear 0s 1 normal forwards running float-btt-in-b2bbcc72-27cf-4d29-a528-8faa52e2ad19;"><path d="M22.24-61.92L22.24-61.92L22.24-61.92Q32.64-61.92 38.76-55.44L38.76-55.44L38.76-55.44Q44.88-48.96 44.88-37.84L44.88-37.84L44.88-37.84Q44.88-31.12 41.60-24.04L41.60-24.04L41.60-24.04Q38.32-16.96 32.88-11.20L32.88-11.20L32.88-11.20Q27.44-5.44 19.60-1.76L19.60-1.76L19.60-1.76Q11.76 1.92 3.36 1.92L3.36 1.92L3.36 1.92Q1.76 1.92 0.24 1.80L0.24 1.80L0.24 1.80Q-1.28 1.68-1.92 1.60L-1.92 1.60L-2.64 1.44L-2.64 1.44Q-3.92 1.12-3.92 0.16L-3.92 0.16L-3.68-0.64L-3.68-0.64Q-2.88-2.56-1.40-5.92L-1.40-5.92L-1.40-5.92Q0.08-9.28 5.48-19.12L5.48-19.12L5.48-19.12Q10.88-28.96 17.04-38.16L17.04-38.16L17.04-38.16Q22.80-46.80 26.16-50.16L26.16-50.16L26.16-50.16Q27.28-51.36 28-51.36L28-51.36L28-51.36Q28.56-51.36 28.56-50.40L28.56-50.40L28.56-50.40Q28.56-49.76 28.48-49.60L28.48-49.60L28.48-49.60Q27.76-46.48 23.36-37.84L23.36-37.84L23.36-37.84Q8.80-12.08 5.12-2L5.12-2L5.12-2Q5.04-1.76 5.04-1.44L5.04-1.44L5.04-1.44Q5.04-0.64 5.68-0.56L5.68-0.56L5.68-0.56Q6.16-0.48 7.12-0.48L7.12-0.48L7.12-0.48Q14.16-0.48 21.64-7.28L21.64-7.28L21.64-7.28Q29.12-14.08 34-24.28L34-24.28L34-24.28Q38.88-34.48 38.88-43.68L38.88-43.68L38.88-43.68Q38.88-50.40 35.04-54.92L35.04-54.92L35.04-54.92Q31.20-59.44 24.64-59.44L24.64-59.44L24.64-59.44Q21.28-59.44 19.08-57.60L19.08-57.60L19.08-57.60Q16.88-55.76 16.88-52.24L16.88-52.24L16.88-52.24Q16.88-49.44 18.56-46.48L18.56-46.48L18.56-46.48Q18.72-46 18.72-45.52L18.72-45.52L18.72-45.52Q18.72-44.88 18.24-44.88L18.24-44.88L18.24-44.88Q18-44.88 17.52-45.12L17.52-45.12L17.52-45.12Q15.68-46.08 13.44-49.12L13.44-49.12L13.44-49.12Q11.20-52.16 11.20-55.44L11.20-55.44L11.20-55.44Q11.20-58 13.12-59.52L13.12-59.52L13.12-59.52Q15.04-61.04 17.28-61.48L17.28-61.48L17.28-61.48Q19.52-61.92 22.24-61.92" fill="#51cacc" stroke="none" stroke-width="none" transform="translate(-34.541656494140625,18.919774169921876)" style="fill: rgb(81, 202, 204);"></path></g><g class="path" style="transform: matrix(1, 0, 0, 1, 0, 236.81); opacity: 0.05; transform-origin: 13.3383px 1.95978px 0px; animation: 1s linear 0.22s 1 normal forwards running float-btt-in-b2bbcc72-27cf-4d29-a528-8faa52e2ad19;"><path d="M48.72-7.76L48.72-7.76L48.72-7.76Q39.36 1.04 36.72 1.04L36.72 1.04L36.72 1.04Q35.36 1.04 35.36-0.80L35.36-0.80L35.36-0.80Q35.36-2.64 36.80-6.16L36.80-6.16L36.80-6.16Q38.24-9.68 39.68-12.32L39.68-12.32L41.12-14.88L41.12-14.88Q47.20-25.52 50.32-30.16L50.32-30.16L50.32-30.16Q51.68-32.16 53.80-33.56L53.80-33.56L53.80-33.56Q55.92-34.96 57.76-34.96L57.76-34.96L57.76-34.96Q58.40-34.96 58.40-34.40L58.40-34.40L58.40-34.40Q58.40-34 57.84-32.88L57.84-32.88L57.84-32.88Q56.88-31.12 53.12-24.48L53.12-24.48L53.12-24.48Q49.36-17.84 48.64-16.48L48.64-16.48L48.64-16.48Q45.36-10.72 45.36-8.80L45.36-8.80L45.36-8.80Q45.36-8.08 45.84-8.08L45.84-8.08L45.84-8.08Q46.64-8.08 50.96-12.08L50.96-12.08L50.96-12.08Q54.32-15.44 59.84-21.76L59.84-21.76L59.84-21.76Q60.08-22 60.24-22L60.24-22L60.24-22Q60.40-22 60.40-21.68L60.40-21.68L60.40-21.68Q60.40-20.16 59.20-18.72L59.20-18.72L59.20-18.72Q53.28-12.16 48.72-7.76" fill="#51cacc" stroke="none" stroke-width="none" transform="translate(-34.541656494140625,18.919774169921876)" style="fill: rgb(157, 248, 113);"></path></g><g class="path" style="transform: matrix(1, 0, 0, 1, 0, 236.81); opacity: 0.05; transform-origin: 26.6983px -25.2002px 0px; animation: 1s linear 0.44s 1 normal forwards running float-btt-in-b2bbcc72-27cf-4d29-a528-8faa52e2ad19;"><path d="M59.36-39.52L59.36-39.52L59.36-39.52Q57.36-39.52 57.36-41.92L57.36-41.92L57.36-41.92Q57.36-44.16 59.04-46.44L59.04-46.44L59.04-46.44Q60.72-48.72 62.72-48.72L62.72-48.72L62.72-48.72Q65.12-48.72 65.12-46L65.12-46L65.12-46Q65.12-43.76 63.28-41.64L63.28-41.64L63.28-41.64Q61.44-39.52 59.36-39.52" fill="#51cacc" stroke="none" stroke-width="none" transform="translate(-34.541656494140625,18.919774169921876)" style="fill: rgb(224, 255, 119);"></path></g></g>
</g>
</g>
<style id="float-btt-in-b2bbcc72-27cf-4d29-a528-8faa52e2ad19" data-anikit="">@keyframes float-btt-in-b2bbcc72-27cf-4d29-a528-8faa52e2ad19
{
  0% {
    animation-timing-function: cubic-bezier(0.2242,0.7499,0.3142,0.8148);
    transform: translate(0px,236.81px) rotate(0deg) scale(1,1) skewX(0deg) skewY(0deg);
    opacity: 0.05;
  }
  100% {
    transform: translate(0px,0px) rotate(0deg) scale(1,1) skewX(0deg) skewY(0deg);
    opacity: 1;
  }
}</style></svg>