<svg id="visual" viewBox="0 0 2000 1400" width="2000" height="1400" xmlns="http://www.w3.org/2000/svg" xmlns:xlink="http://www.w3.org/1999/xlink" version="1.1"><rect width="2000" height="1400" fill="#001829"></rect><g><g transform="translate(1337 427)"><path d="M0 -275L215 -171.4L268.1 61.2L119.3 247.8L-119.3 247.8L-268.1 61.2L-215 -171.4Z" fill="none" stroke="#297EA6" stroke-width="2"></path></g><g transform="translate(1639 1099)"><path d="M0 -110L86 -68.6L107.2 24.5L47.7 99.1L-47.7 99.1L-107.2 24.5L-86 -68.6Z" fill="none" stroke="#297EA6" stroke-width="2"></path></g><g transform="translate(348 556)"><path d="M0 -153L119.6 -95.4L149.2 34L66.4 137.8L-66.4 137.8L-149.2 34L-119.6 -95.4Z" fill="none" stroke="#297EA6" stroke-width="2"></path></g><g transform="translate(668 1229)"><path d="M0 -145L113.4 -90.4L141.4 32.3L62.9 130.6L-62.9 130.6L-141.4 32.3L-113.4 -90.4Z" stroke="#297EA6" fill="none" stroke-width="2"></path></g><g transform="translate(2 47)"><path d="M0 -234L182.9 -145.9L228.1 52.1L101.5 210.8L-101.5 210.8L-228.1 52.1L-182.9 -145.9Z" stroke="#297EA6" fill="none" stroke-width="2"></path></g><g transform="translate(1938 311)"><path d="M0 -131L102.4 -81.7L127.7 29.2L56.8 118L-56.8 118L-127.7 29.2L-102.4 -81.7Z" stroke="#297EA6" fill="none" stroke-width="2"></path></g><g transform="translate(84 1218)"><path d="M0 -213L166.5 -132.8L207.7 47.4L92.4 191.9L-92.4 191.9L-207.7 47.4L-166.5 -132.8Z" stroke="#297EA6" fill="none" stroke-width="2"></path></g></g></svg>