<svg id="visual" viewBox="0 0 2000 1400" width="2000" height="1400" xmlns="http://www.w3.org/2000/svg" xmlns:xlink="http://www.w3.org/1999/xlink" version="1.1"><rect x="0" y="0" width="2000" height="1400" fill="#001E6C"></rect><path d="M1017 1400L536 1400L536 1283L1164 1283L1164 1167L742 1167L742 1050L645 1050L645 933L813 933L813 817L694 817L694 700L1142 700L1142 583L554 583L554 467L499 467L499 350L1056 350L1056 233L1177 233L1177 117L751 117L751 0L2000 0L2000 117L2000 117L2000 233L2000 233L2000 350L2000 350L2000 467L2000 467L2000 583L2000 583L2000 700L2000 700L2000 817L2000 817L2000 933L2000 933L2000 1050L2000 1050L2000 1167L2000 1167L2000 1283L2000 1283L2000 1400L2000 1400Z" fill="#035397"></path><path d="M1159 1400L1055 1400L1055 1283L1032 1283L1032 1167L1191 1167L1191 1050L679 1050L679 933L1259 933L1259 817L1192 817L1192 700L1065 700L1065 583L1142 583L1142 467L945 467L945 350L1037 350L1037 233L973 233L973 117L1129 117L1129 0L2000 0L2000 117L2000 117L2000 233L2000 233L2000 350L2000 350L2000 467L2000 467L2000 583L2000 583L2000 700L2000 700L2000 817L2000 817L2000 933L2000 933L2000 1050L2000 1050L2000 1167L2000 1167L2000 1283L2000 1283L2000 1400L2000 1400Z" fill="#004d92"></path><path d="M1315 1400L1230 1400L1230 1283L1390 1283L1390 1167L1222 1167L1222 1050L1268 1050L1268 933L1401 933L1401 817L934 817L934 700L1171 700L1171 583L1016 583L1016 467L877 467L877 350L805 350L805 233L1339 233L1339 117L833 117L833 0L2000 0L2000 117L2000 117L2000 233L2000 233L2000 350L2000 350L2000 467L2000 467L2000 583L2000 583L2000 700L2000 700L2000 817L2000 817L2000 933L2000 933L2000 1050L2000 1050L2000 1167L2000 1167L2000 1283L2000 1283L2000 1400L2000 1400Z" fill="#00468d"></path><path d="M1183 1400L1220 1400L1220 1283L1357 1283L1357 1167L1441 1167L1441 1050L1110 1050L1110 933L1019 933L1019 817L1508 817L1508 700L1375 700L1375 583L1278 583L1278 467L981 467L981 350L1381 350L1381 233L1362 233L1362 117L1400 117L1400 0L2000 0L2000 117L2000 117L2000 233L2000 233L2000 350L2000 350L2000 467L2000 467L2000 583L2000 583L2000 700L2000 700L2000 817L2000 817L2000 933L2000 933L2000 1050L2000 1050L2000 1167L2000 1167L2000 1283L2000 1283L2000 1400L2000 1400Z" fill="#004088"></path><path d="M1239 1400L1358 1400L1358 1283L1161 1283L1161 1167L1142 1167L1142 1050L1128 1050L1128 933L1219 933L1219 817L1460 817L1460 700L1492 700L1492 583L1126 583L1126 467L1212 467L1212 350L1236 350L1236 233L1352 233L1352 117L1424 117L1424 0L2000 0L2000 117L2000 117L2000 233L2000 233L2000 350L2000 350L2000 467L2000 467L2000 583L2000 583L2000 700L2000 700L2000 817L2000 817L2000 933L2000 933L2000 1050L2000 1050L2000 1167L2000 1167L2000 1283L2000 1283L2000 1400L2000 1400Z" fill="#003983"></path><path d="M1534 1400L1663 1400L1663 1283L1507 1283L1507 1167L1508 1167L1508 1050L1292 1050L1292 933L1483 933L1483 817L1620 817L1620 700L1701 700L1701 583L1528 583L1528 467L1300 467L1300 350L1593 350L1593 233L1425 233L1425 117L1391 117L1391 0L2000 0L2000 117L2000 117L2000 233L2000 233L2000 350L2000 350L2000 467L2000 467L2000 583L2000 583L2000 700L2000 700L2000 817L2000 817L2000 933L2000 933L2000 1050L2000 1050L2000 1167L2000 1167L2000 1283L2000 1283L2000 1400L2000 1400Z" fill="#00327d"></path><path d="M1793 1400L1471 1400L1471 1283L1426 1283L1426 1167L1669 1167L1669 1050L1708 1050L1708 933L1448 933L1448 817L1785 817L1785 700L1528 700L1528 583L1415 583L1415 467L1458 467L1458 350L1425 350L1425 233L1676 233L1676 117L1635 117L1635 0L2000 0L2000 117L2000 117L2000 233L2000 233L2000 350L2000 350L2000 467L2000 467L2000 583L2000 583L2000 700L2000 700L2000 817L2000 817L2000 933L2000 933L2000 1050L2000 1050L2000 1167L2000 1167L2000 1283L2000 1283L2000 1400L2000 1400Z" fill="#002c78"></path><path d="M1706 1400L1585 1400L1585 1283L1686 1283L1686 1167L1635 1167L1635 1050L1698 1050L1698 933L1729 933L1729 817L1830 817L1830 700L1830 700L1830 583L1572 583L1572 467L1842 467L1842 350L1805 350L1805 233L1875 233L1875 117L1754 117L1754 0L2000 0L2000 117L2000 117L2000 233L2000 233L2000 350L2000 350L2000 467L2000 467L2000 583L2000 583L2000 700L2000 700L2000 817L2000 817L2000 933L2000 933L2000 1050L2000 1050L2000 1167L2000 1167L2000 1283L2000 1283L2000 1400L2000 1400Z" fill="#002572"></path><path d="M1846 1400L1822 1400L1822 1283L1765 1283L1765 1167L1808 1167L1808 1050L1845 1050L1845 933L1775 933L1775 817L1746 817L1746 700L1784 700L1784 583L1782 583L1782 467L1831 467L1831 350L1935 350L1935 233L1890 233L1890 117L1721 117L1721 0L2000 0L2000 117L2000 117L2000 233L2000 233L2000 350L2000 350L2000 467L2000 467L2000 583L2000 583L2000 700L2000 700L2000 817L2000 817L2000 933L2000 933L2000 1050L2000 1050L2000 1167L2000 1167L2000 1283L2000 1283L2000 1400L2000 1400Z" fill="#001e6c"></path></svg>